<svg width="29" height="28" viewBox="0 0 29 28" fill="none" xmlns="http://www.w3.org/2000/svg">
<path d="M15 28C11.26 28 7.745 26.544 5.101 23.899C0.779005 19.578 -0.247995 13.025 2.547 7.595C2.8 7.104 3.402 6.911 3.89401 7.163C4.38601 7.415 4.57901 8.018 4.32601 8.51C1.93001 13.164 2.81 18.78 6.515 22.485C8.781 24.752 11.794 26 15 26C18.205 26 21.219 24.752 23.485 22.485C25.751 20.218 27 17.205 27 14C27 10.794 25.752 7.781 23.485 5.515C21.218 3.249 18.206 2 15 2C11.794 2 8.781 3.249 6.515 5.515C6.124 5.906 5.492 5.906 5.101 5.515C4.71 5.124 4.71 4.492 5.101 4.101C7.745 1.457 11.26 0 15 0C18.74 0 22.256 1.457 24.899 4.101C27.544 6.745 29 10.26 29 14C29 17.739 27.544 21.255 24.899 23.899C22.256 26.544 18.74 28 15 28Z" fill="#8E00FE"/>
<path d="M19.999 19C19.78 19 19.56 18.929 19.375 18.781L14.375 14.781C14.138 14.591 14 14.304 14 14V6C14 5.448 14.448 5 15 5C15.552 5 16 5.448 16 6V13.52L20.625 17.219C21.056 17.565 21.126 18.194 20.781 18.625C20.583 18.871 20.293 19 19.999 19Z" fill="#8E00FE"/>
</svg>
