<svg width="583" height="452" viewBox="0 0 583 452" fill="none" xmlns="http://www.w3.org/2000/svg">
<path d="M573.431 450.862C573.944 451.066 574.525 450.814 574.729 450.301L578.044 441.934C578.248 441.42 577.996 440.839 577.483 440.636C576.969 440.432 576.388 440.684 576.185 441.197L573.238 448.635L565.8 445.688C565.287 445.484 564.706 445.736 564.502 446.249C564.299 446.762 564.55 447.344 565.064 447.547L573.431 450.862ZM2.16887 0.975899C1.25102 1.37281 1.25103 1.37284 1.25105 1.37289C1.25107 1.37294 1.2511 1.37301 1.25114 1.37309C1.25121 1.37326 1.25132 1.37351 1.25146 1.37382C1.25173 1.37446 1.25213 1.37539 1.25266 1.37662C1.25373 1.37907 1.2553 1.38271 1.25738 1.38752C1.26155 1.39715 1.26776 1.41148 1.27601 1.43048C1.29249 1.46849 1.31711 1.52517 1.34976 1.60022C1.41508 1.75033 1.51258 1.97392 1.6416 2.26854C1.89964 2.85777 2.28378 3.73112 2.78875 4.86895C3.7987 7.14458 5.29201 10.4782 7.22659 14.7125L9.04572 13.8814C7.11434 9.65406 5.62401 6.32711 4.61681 4.05764C4.11321 2.92291 3.73039 2.05257 3.47363 1.46624C3.34524 1.17308 3.24837 0.950925 3.18367 0.802231C3.15132 0.727884 3.12701 0.671903 3.11083 0.634594C3.10273 0.61594 3.09667 0.601953 3.09266 0.592674C3.09065 0.588034 3.08915 0.58457 3.08816 0.582288C3.08767 0.581147 3.0873 0.580302 3.08706 0.579752C3.08694 0.579477 3.08686 0.579277 3.0868 0.57915C3.08677 0.579086 3.08676 0.579047 3.08674 0.579015C3.08673 0.578994 3.08673 0.578992 2.16887 0.975899ZM19.9415 41.7517C23.8189 49.7834 28.2257 58.7319 33.0908 68.3315L34.8748 67.4274C30.0161 57.8403 25.615 48.9035 21.7426 40.8822L19.9415 41.7517ZM46.737 94.6046C51.2466 103.074 56.013 111.816 60.9991 120.692L62.7428 119.712C57.7647 110.85 53.0056 102.122 48.5024 93.6646L46.737 94.6046ZM75.869 146.395C80.9185 154.86 86.1311 163.327 91.4762 171.682L93.161 170.604C87.8282 162.269 82.6266 153.819 77.5867 145.37L75.869 146.395ZM107.956 196.407C113.719 204.682 119.591 212.715 125.538 220.379L127.118 219.153C121.195 211.519 115.343 203.514 109.598 195.264L107.956 196.407ZM144.538 243.218C151.521 250.982 158.561 258.087 165.607 264.335L166.934 262.839C159.955 256.649 152.968 249.6 146.025 241.881L144.538 243.218ZM189.595 282.05C199.034 287.518 208.414 291.045 217.601 292.109L217.831 290.122C208.988 289.099 199.871 285.692 190.598 280.32L189.595 282.05ZM246.69 286.15C254.283 281.79 261.533 275.077 268.363 265.719L266.748 264.539C260.044 273.724 252.992 280.225 245.694 284.416L246.69 286.15ZM283.073 239.898C285.072 235.51 287.021 230.817 288.919 225.809L287.049 225.1C285.165 230.071 283.232 234.724 281.253 239.069L283.073 239.898ZM288.919 225.809C290.803 220.837 292.736 216.185 294.715 211.84L292.895 211.011C290.896 215.399 288.947 220.091 287.049 225.1L288.919 225.809ZM309.22 186.369C315.924 177.184 322.976 170.684 330.274 166.493L329.278 164.758C321.685 169.118 314.435 175.832 307.605 185.19L309.22 186.369ZM358.137 160.787C366.98 161.81 376.097 165.217 385.37 170.589L386.373 168.858C376.934 163.39 367.554 159.863 358.367 158.8L358.137 160.787ZM409.034 188.069C416.013 194.259 423 201.308 429.943 209.028L431.43 207.69C424.447 199.926 417.407 192.822 410.361 186.573L409.034 188.069ZM448.85 231.756C454.773 239.389 460.625 247.394 466.371 255.645L468.012 254.502C462.249 246.227 456.377 238.194 450.43 230.53L448.85 231.756ZM482.807 280.304C488.14 288.64 493.342 297.089 498.381 305.538L500.099 304.514C495.05 296.049 489.837 287.581 484.492 279.226L482.807 280.304ZM513.225 331.196C518.203 340.058 522.963 348.787 527.466 357.244L529.231 356.304C524.722 347.835 519.955 339.093 514.969 330.217L513.225 331.196ZM541.093 383.481C545.952 393.068 550.353 402.005 554.226 410.026L556.027 409.157C552.149 401.125 547.742 392.177 542.877 382.577L541.093 383.481ZM566.922 437.027C568.854 441.254 570.344 444.581 571.351 446.851C571.855 447.986 572.238 448.856 572.494 449.442C572.623 449.735 572.72 449.958 572.784 450.106C572.817 450.181 572.841 450.237 572.857 450.274C572.865 450.293 572.871 450.307 572.875 450.316C572.877 450.321 572.879 450.324 572.88 450.326C572.88 450.327 572.881 450.328 572.881 450.329C572.881 450.329 572.881 450.329 572.881 450.329C572.881 450.329 572.881 450.329 572.881 450.33C572.881 450.33 572.881 450.33 573.799 449.933C574.717 449.536 574.717 449.536 574.717 449.536C574.717 449.536 574.717 449.536 574.717 449.535C574.717 449.535 574.717 449.535 574.717 449.535C574.716 449.534 574.716 449.533 574.715 449.532C574.714 449.529 574.713 449.526 574.711 449.521C574.707 449.511 574.7 449.497 574.692 449.478C574.676 449.44 574.651 449.383 574.618 449.308C574.553 449.158 574.456 448.935 574.327 448.64C574.068 448.051 573.684 447.177 573.179 446.04C572.169 443.764 570.676 440.43 568.742 436.196L566.922 437.027ZM573.063 451.792C574.089 452.199 575.252 451.696 575.659 450.669L582.289 433.935C582.696 432.908 582.194 431.746 581.167 431.339C580.14 430.932 578.977 431.435 578.571 432.462L572.677 447.337L557.802 441.443C556.775 441.036 555.613 441.538 555.206 442.565C554.799 443.592 555.301 444.754 556.328 445.161L573.063 451.792ZM2.16887 0.975899C0.333157 1.76971 0.333179 1.76977 0.333209 1.76983C0.33323 1.76988 0.333267 1.76997 0.333309 1.77007C0.333391 1.77026 0.333506 1.77052 0.333653 1.77086C0.333946 1.77154 0.334368 1.77251 0.334918 1.77378C0.336017 1.77632 0.337628 1.78005 0.33975 1.78495C0.343993 1.79474 0.350279 1.80925 0.358597 1.82843C0.375234 1.86678 0.399999 1.92381 0.432811 1.99922C0.498434 2.15003 0.596245 2.37434 0.725585 2.66968C0.984264 3.26037 1.36906 4.13523 1.87473 5.2746C2.88604 7.55332 4.38084 10.8902 6.31702 15.1281L9.95528 13.4658C8.02551 9.24201 6.53667 5.91837 5.53084 3.65199C5.02792 2.51881 4.64577 1.64996 4.38964 1.06509C4.26157 0.77266 4.16502 0.551223 4.10062 0.403235C4.06842 0.329242 4.04427 0.273611 4.02824 0.23665C4.02022 0.21817 4.01423 0.204357 4.01029 0.19525C4.00832 0.190696 4.00686 0.187319 4.00591 0.185123C4.00543 0.184025 4.00508 0.183223 4.00486 0.182716C4.00475 0.182463 4.00468 0.182283 4.00463 0.182178C4.00461 0.182125 4.0046 0.182102 4.00459 0.182076C4.00459 0.182071 4.00459 0.182084 2.16887 0.975899ZM19.0409 42.1865C22.9209 50.2234 27.3306 59.1777 32.1989 68.7835L35.7668 66.9753C30.9113 57.3946 26.513 48.4635 22.6431 40.4474L19.0409 42.1865ZM45.8543 95.0746C50.3671 103.55 55.1371 112.298 60.1272 121.181L63.6147 119.222C58.6406 110.368 53.885 101.646 49.385 93.1946L45.8543 95.0746ZM75.0102 146.907C80.0644 155.38 85.2826 163.857 90.6339 172.221L94.0033 170.065C88.6768 161.74 83.4806 153.299 78.4455 144.858L75.0102 146.907ZM107.136 196.978C112.907 205.265 118.789 213.312 124.748 220.992L127.908 218.54C121.997 210.921 116.155 202.931 110.418 194.692L107.136 196.978ZM143.795 243.887C150.798 251.673 157.865 258.805 164.944 265.084L167.598 262.091C160.652 255.931 153.692 248.909 146.769 241.212L143.795 243.887ZM189.094 282.916C198.616 288.432 208.127 292.019 217.486 293.102L217.946 289.129C209.275 288.125 200.29 284.779 191.099 279.454L189.094 282.916ZM247.188 287.017C254.928 282.573 262.277 275.753 269.171 266.308L265.94 263.95C259.299 273.048 252.347 279.442 245.196 283.548L247.188 287.017ZM283.983 240.312C285.992 235.903 287.949 231.19 289.854 226.163L286.114 224.746C284.237 229.698 282.312 234.331 280.343 238.654L283.983 240.312ZM289.854 226.163C291.731 221.21 293.656 216.578 295.625 212.254L291.985 210.596C289.977 215.006 288.019 219.719 286.114 224.746L289.854 226.163ZM310.028 186.959C316.669 177.86 323.621 171.466 330.772 167.36L328.78 163.891C321.04 168.336 313.691 175.156 306.797 184.6L310.028 186.959ZM358.022 161.78C366.693 162.783 375.678 166.13 384.869 171.454L386.874 167.993C377.352 162.477 367.841 158.89 358.482 157.806L358.022 161.78ZM408.37 188.818C415.316 194.978 422.276 201.999 429.199 209.696L432.173 207.022C425.17 199.235 418.104 192.103 411.024 185.825L408.37 188.818ZM448.06 232.369C453.971 239.987 459.813 247.978 465.55 256.216L468.832 253.93C463.061 245.643 457.179 237.596 451.22 229.916L448.06 232.369ZM481.965 280.843C487.291 289.169 492.488 297.61 497.523 306.051L500.958 304.001C495.904 295.528 490.686 287.052 485.334 278.687L481.965 280.843ZM512.353 331.686C517.328 340.541 522.083 349.263 526.583 357.714L530.114 355.834C525.601 347.359 520.831 338.61 515.841 329.727L512.353 331.686ZM540.201 383.933C545.057 393.514 549.455 402.445 553.325 410.461L556.927 408.722C553.047 400.685 548.638 391.731 543.769 382.125L540.201 383.933ZM566.013 437.443C567.943 441.667 569.431 444.99 570.437 447.257C570.94 448.39 571.322 449.259 571.578 449.843C571.707 450.136 571.803 450.357 571.868 450.505C571.9 450.579 571.924 450.635 571.94 450.672C571.948 450.69 571.954 450.704 571.958 450.713C571.96 450.718 571.961 450.721 571.962 450.723C571.963 450.725 571.963 450.725 571.963 450.726C571.963 450.726 571.963 450.726 571.963 450.726C571.964 450.726 571.964 450.726 571.964 450.726C571.964 450.726 571.964 450.726 573.799 449.933C575.635 449.139 575.635 449.139 575.635 449.139C575.635 449.139 575.635 449.139 575.635 449.138C575.635 449.138 575.635 449.138 575.634 449.138C575.634 449.137 575.634 449.136 575.633 449.135C575.632 449.132 575.63 449.128 575.628 449.124C575.624 449.114 575.618 449.099 575.61 449.08C575.593 449.042 575.568 448.985 575.535 448.909C575.47 448.759 575.372 448.534 575.243 448.239C574.984 447.648 574.599 446.773 574.093 445.634C573.082 443.355 571.587 440.018 569.651 435.78L566.013 437.443Z" fill="#8E00FE"/>
</svg>
