<svg width="33" height="25" viewBox="0 0 33 25" fill="none" xmlns="http://www.w3.org/2000/svg">
<path d="M27.5 0H5.5C2.475 0 0 2.475 0 5.5V19.25C0 22.275 2.475 24.75 5.5 24.75H27.5C30.525 24.75 33 22.275 33 19.25V5.5C33 2.475 30.525 0 27.5 0ZM29.7 7.975L18.8375 15.2625C18.15 15.675 17.325 15.95 16.5 15.95C15.675 15.95 14.85 15.675 14.1625 15.2625L3.3 7.975C2.75 7.5625 2.6125 6.7375 3.025 6.05C3.4375 5.5 4.2625 5.3625 4.95 5.775L15.8125 13.0625C16.225 13.3375 16.9125 13.3375 17.325 13.0625L28.1875 5.775C28.875 5.3625 29.7 5.5 30.1125 6.1875C30.3875 6.7375 30.25 7.5625 29.7 7.975Z" fill="black"/>
</svg>
