<svg width="289" height="91" viewBox="0 0 289 91" fill="none" xmlns="http://www.w3.org/2000/svg">
<path d="M2.944 89.511C2.13067 89.511 1.43933 89.2263 0.87 88.657C0.300667 88.0877 0.0160002 87.3963 0.0160002 86.583V7.03898C0.0160002 6.22565 0.300667 5.53431 0.87 4.96498C1.43933 4.39565 2.13067 4.11098 2.944 4.11098H14.29C15.1033 4.11098 15.7947 4.39565 16.364 4.96498C16.9333 5.53431 17.218 6.22565 17.218 7.03898V74.993H55.892C56.7867 74.993 57.5187 75.2777 58.088 75.847C58.6573 76.4163 58.942 77.1483 58.942 78.043V86.583C58.942 87.3963 58.6573 88.0877 58.088 88.657C57.5187 89.2263 56.7867 89.511 55.892 89.511H2.944ZM72.2495 89.511C71.4362 89.511 70.7449 89.2263 70.1755 88.657C69.6062 88.0877 69.3215 87.3963 69.3215 86.583V28.999C69.3215 28.1856 69.6062 27.4943 70.1755 26.925C70.7449 26.3556 71.4362 26.071 72.2495 26.071H82.3755C83.2702 26.071 83.9615 26.3556 84.4495 26.925C85.0189 27.4943 85.3035 28.1856 85.3035 28.999V86.583C85.3035 87.3963 85.0189 88.0877 84.4495 88.657C83.9615 89.2263 83.2702 89.511 82.3755 89.511H72.2495ZM71.7615 15.579C70.8669 15.579 70.1349 15.335 69.5655 14.847C69.0775 14.2776 68.8335 13.5456 68.8335 12.651V3.86698C68.8335 3.05365 69.0775 2.36232 69.5655 1.79298C70.1349 1.22365 70.8669 0.938985 71.7615 0.938985H82.8635C83.7582 0.938985 84.4902 1.22365 85.0595 1.79298C85.6289 2.36232 85.9135 3.05365 85.9135 3.86698V12.651C85.9135 13.5456 85.6289 14.2776 85.0595 14.847C84.4902 15.335 83.7582 15.579 82.8635 15.579H71.7615ZM104.54 89.511C103.726 89.511 103.035 89.2263 102.466 88.657C101.896 88.0877 101.612 87.3963 101.612 86.583V5.81898C101.612 5.00565 101.896 4.31432 102.466 3.74499C103.035 3.17565 103.726 2.89098 104.54 2.89098H114.422C115.316 2.89098 116.008 3.17565 116.496 3.74499C117.065 4.31432 117.35 5.00565 117.35 5.81898V47.543L137.846 28.145C138.578 27.4943 139.228 27.0063 139.798 26.681C140.367 26.2743 141.221 26.071 142.36 26.071H153.706C154.519 26.071 155.17 26.315 155.658 26.803C156.146 27.291 156.39 27.9417 156.39 28.755C156.39 29.0803 156.308 29.4463 156.145 29.853C155.983 30.2596 155.658 30.6257 155.17 30.951L130.038 54.497L158.22 84.753C159.033 85.5663 159.44 86.2577 159.44 86.827C159.44 87.6403 159.155 88.291 158.586 88.779C158.098 89.267 157.488 89.511 156.756 89.511H145.166C143.946 89.511 143.051 89.3483 142.482 89.023C141.994 88.6163 141.384 88.0877 140.652 87.437L117.35 62.915V86.583C117.35 87.3963 117.065 88.0877 116.496 88.657C116.008 89.2263 115.316 89.511 114.422 89.511H104.54ZM192.915 90.731C183.887 90.731 176.73 88.1283 171.443 82.923C166.156 77.7177 163.31 70.3163 162.903 60.719C162.822 59.9057 162.781 58.889 162.781 57.669C162.781 56.3677 162.822 55.351 162.903 54.619C163.228 48.519 164.611 43.2323 167.051 38.759C169.572 34.2857 173.029 30.8697 177.421 28.511C181.813 26.071 186.978 24.851 192.915 24.851C199.503 24.851 205.034 26.2336 209.507 28.999C213.98 31.683 217.356 35.465 219.633 40.345C221.91 45.1437 223.049 50.715 223.049 57.059V59.621C223.049 60.4343 222.764 61.1257 222.195 61.695C221.626 62.2643 220.894 62.549 219.999 62.549H179.495C179.495 62.549 179.495 62.671 179.495 62.915C179.495 63.159 179.495 63.3623 179.495 63.525C179.576 66.3717 180.105 69.015 181.081 71.455C182.138 73.8137 183.643 75.725 185.595 77.189C187.628 78.653 190.028 79.385 192.793 79.385C195.07 79.385 196.982 79.0597 198.527 78.409C200.072 77.677 201.333 76.8637 202.309 75.969C203.285 75.0743 203.976 74.3423 204.383 73.773C205.115 72.797 205.684 72.2277 206.091 72.065C206.579 71.821 207.27 71.699 208.165 71.699H218.657C219.47 71.699 220.121 71.943 220.609 72.431C221.178 72.919 221.422 73.529 221.341 74.261C221.26 75.5623 220.568 77.1483 219.267 79.019C218.047 80.8897 216.258 82.7197 213.899 84.509C211.54 86.2983 208.572 87.803 204.993 89.023C201.496 90.1617 197.47 90.731 192.915 90.731ZM179.495 52.301H206.457V51.935C206.457 48.763 205.928 45.9977 204.871 43.639C203.814 41.2803 202.268 39.4096 200.235 38.027C198.202 36.6443 195.762 35.953 192.915 35.953C190.068 35.953 187.628 36.6443 185.595 38.027C183.562 39.4096 182.016 41.2803 180.959 43.639C179.983 45.9977 179.495 48.763 179.495 51.935V52.301ZM260.033 90.731C255.153 90.731 250.965 90.1617 247.467 89.023C244.051 87.8843 241.245 86.461 239.049 84.753C236.853 83.045 235.227 81.337 234.169 79.629C233.112 77.921 232.543 76.4977 232.461 75.359C232.38 74.4643 232.624 73.773 233.193 73.285C233.844 72.7157 234.535 72.431 235.267 72.431H244.905C245.231 72.431 245.515 72.4717 245.759 72.553C246.003 72.6343 246.329 72.8783 246.735 73.285C247.793 74.1797 248.891 75.115 250.029 76.091C251.249 77.067 252.673 77.921 254.299 78.653C255.926 79.3037 257.959 79.629 260.399 79.629C263.571 79.629 266.215 79.019 268.329 77.799C270.525 76.4977 271.623 74.6677 271.623 72.309C271.623 70.601 271.135 69.2183 270.159 68.161C269.265 67.1037 267.557 66.1683 265.035 65.355C262.514 64.4603 258.935 63.525 254.299 62.549C249.745 61.4917 245.963 60.1497 242.953 58.523C239.944 56.8963 237.707 54.863 236.243 52.423C234.779 49.983 234.047 47.1363 234.047 43.883C234.047 40.711 234.983 37.7017 236.853 34.855C238.805 31.927 241.652 29.5276 245.393 27.657C249.216 25.7863 253.933 24.851 259.545 24.851C263.937 24.851 267.76 25.4203 271.013 26.559C274.267 27.6163 276.951 28.9583 279.065 30.585C281.261 32.2117 282.929 33.879 284.067 35.587C285.206 37.2137 285.816 38.637 285.897 39.857C285.979 40.7517 285.735 41.4836 285.165 42.053C284.596 42.541 283.945 42.785 283.213 42.785H274.185C273.779 42.785 273.413 42.7037 273.087 42.541C272.762 42.3783 272.437 42.175 272.111 41.931C271.217 41.1177 270.241 40.2637 269.183 39.369C268.126 38.4743 266.825 37.7017 265.279 37.051C263.815 36.319 261.863 35.953 259.423 35.953C256.333 35.953 253.974 36.6443 252.347 38.027C250.721 39.3283 249.907 40.9957 249.907 43.029C249.907 44.4117 250.273 45.6317 251.005 46.689C251.819 47.665 253.405 48.6003 255.763 49.495C258.122 50.3897 261.701 51.325 266.499 52.301C271.949 53.277 276.259 54.741 279.431 56.693C282.685 58.5637 284.962 60.7597 286.263 63.281C287.646 65.721 288.337 68.4457 288.337 71.455C288.337 75.115 287.239 78.409 285.043 81.337C282.929 84.265 279.757 86.583 275.527 88.291C271.379 89.9177 266.215 90.731 260.033 90.731Z" fill="url(#paint0_linear_1705_5654)"/>
<defs>
<linearGradient id="paint0_linear_1705_5654" x1="5.89179" y1="30.4614" x2="466.946" y2="30.4614" gradientUnits="userSpaceOnUse">
<stop/>
<stop offset="1" stop-color="#8E00FE"/>
</linearGradient>
</defs>
</svg>
