<svg width="80" height="93" viewBox="0 0 80 93" fill="none" xmlns="http://www.w3.org/2000/svg">
<path fill-rule="evenodd" clip-rule="evenodd" d="M40.63 2.78021C38.6049 5.35397 38.5818 8.59064 40.5736 10.3934C42.0584 11.737 42.1171 12.7704 42.1171 37.5239C42.1171 51.6777 42.3139 63.2576 42.5555 63.2576C42.7962 63.2576 49.6068 59.4375 57.69 54.7685C65.7732 50.0994 72.5221 46.2793 72.6873 46.2793C72.8516 46.2793 72.9867 50.2191 72.9867 55.0347C72.9867 62.418 72.7752 63.9715 71.6362 64.9462C70.3018 66.0883 41.7984 82.6892 36.87 85.1943C34.4182 86.4407 34.2176 86.4245 31.4679 84.7536C29.8966 83.799 28.3562 82.653 28.0444 82.2061C27.7326 81.7593 27.4726 65.5057 27.4656 46.0864C27.454 11.8165 27.4085 10.7338 25.9106 9.23582C25.0616 8.3869 23.8037 7.69234 23.1153 7.69234C21.2246 7.69234 5.34447 16.9717 2.93741 19.4837L0.82902 21.6832L0.609074 51.0541C0.418455 76.5956 0.546563 80.6642 1.5915 82.2602C3.39042 85.0052 5.99813 84.5646 13.5627 80.2359C17.2717 78.1136 20.5246 76.3772 20.7932 76.3772C21.061 76.3772 21.2801 78.1012 21.2801 80.2089C21.2801 83.3429 21.6907 84.5082 23.5344 86.6081C26.6669 90.1759 32.7435 92.9264 36.0659 92.2804C37.4843 92.0049 46.9791 86.9616 57.166 81.0732C70.4369 73.4021 76.1802 69.6553 77.4242 67.8556C79.0449 65.5126 79.1606 64.5348 79.1606 53.2304C79.1606 42.4747 79.0024 40.9728 77.7491 39.8392C76.9727 39.1369 75.5782 38.5619 74.6498 38.5619C73.7222 38.5619 67.5521 41.6875 60.9406 45.5076C54.3283 49.3277 48.7772 52.4532 48.6051 52.4532C48.4322 52.4532 48.291 43.2256 48.291 31.9473C48.291 14.7484 48.4778 11.2539 49.4486 10.2831C50.0853 9.64638 50.6062 7.99563 50.6062 6.61422C50.6062 1.26066 43.8628 -1.33007 40.63 2.78021ZM21.2801 41.9476V68.4861L14.3406 72.4313C10.5236 74.6014 7.22443 76.3772 7.00911 76.3772C6.34156 76.3772 6.60241 25.1174 7.27536 24.0563C7.76619 23.2815 20.2097 15.5085 21.0872 15.4275C21.1937 15.4175 21.2801 27.3516 21.2801 41.9476Z" fill="white"/>
</svg>
