<svg width="519" height="542" viewBox="0 0 519 542" fill="none" xmlns="http://www.w3.org/2000/svg">
<path d="M784.521 220.778L188.311 537.223H784.521V220.778Z" fill="#8E00FE"/>
<path d="M540.181 350.469V0.511292L-0.405273 288.207V537.223H188.311L540.181 350.469Z" fill="#434343"/>
<path d="M188.311 176.134V197.146L-0.405472 297.584V275.695L188.311 176.134Z" fill="#8E00FE"/>
<g clip-path="url(#clip0_1615_8693)">
<path d="M484.118 446.518C494.319 456.725 494.319 473.275 484.118 483.485C473.919 493.694 457.383 493.694 447.181 483.485C436.985 473.275 436.985 456.725 447.181 446.518C457.383 436.309 473.919 436.309 484.118 446.518Z" fill="#8E00FE"/>
<path d="M479.62 463.529C479.609 463.386 479.603 463.268 479.593 463.2C479.083 459.255 475.812 456.28 471.988 456.28C469.939 456.28 468.01 457.116 466.56 458.624C466.223 458.98 465.918 459.36 465.648 459.767C465.381 459.36 465.079 458.98 464.739 458.624C463.289 457.116 461.36 456.28 459.314 456.28C455.487 456.28 452.219 459.255 451.712 463.187C451.695 463.278 451.685 463.394 451.682 463.532C451.466 467.407 453.578 470.708 457.787 473.073C460.298 474.486 462.391 475.311 465.025 475.931C465.031 475.937 465.039 475.937 465.047 475.937C465.244 475.982 465.446 476.004 465.648 476.004C465.853 476.004 466.055 475.982 466.25 475.939C466.258 475.937 466.266 475.937 466.276 475.931C468.908 475.311 471.006 474.486 473.512 473.073C477.721 470.708 479.833 467.407 479.62 463.529Z" fill="white"/>
<path d="M494.667 348.712C502.967 357.021 502.967 370.494 494.667 378.802C486.364 387.108 472.907 387.108 464.601 378.802C456.301 370.494 456.301 357.021 464.601 348.712C472.907 340.401 486.364 340.401 494.667 348.712Z" fill="#8E00FE"/>
<path d="M491.005 362.557C490.999 362.441 490.989 362.344 490.983 362.29C490.568 359.078 487.906 356.66 484.792 356.66C483.125 356.66 481.555 357.334 480.377 358.566C480.099 358.855 479.851 359.165 479.635 359.496C479.414 359.165 479.169 358.855 478.891 358.566C477.713 357.334 476.143 356.66 474.474 356.66C471.362 356.66 468.7 359.078 468.288 362.277C468.277 362.355 468.269 362.444 468.261 362.56C468.088 365.715 469.809 368.401 473.234 370.326C475.275 371.475 476.985 372.149 479.126 372.656C479.131 372.656 479.137 372.656 479.142 372.659C479.304 372.694 479.468 372.713 479.635 372.713C479.797 372.713 479.962 372.694 480.121 372.659C480.129 372.656 480.137 372.656 480.142 372.656C482.286 372.149 483.991 371.475 486.032 370.326C489.457 368.401 491.177 365.715 491.005 362.557Z" fill="white"/>
<path d="M386.207 423.065C394.513 431.377 394.513 444.849 386.207 453.155C377.907 461.463 364.445 461.463 356.144 453.155C347.841 444.849 347.841 431.377 356.144 423.065C364.445 414.757 377.907 414.757 386.207 423.065Z" fill="#8E00FE"/>
<path d="M382.548 436.913C382.54 436.797 382.534 436.702 382.526 436.646C382.108 433.434 379.446 431.015 376.334 431.015C374.665 431.015 373.096 431.689 371.917 432.922C371.642 433.21 371.394 433.52 371.173 433.852C370.957 433.52 370.709 433.21 370.431 432.922C369.253 431.689 367.684 431.015 366.017 431.015C362.905 431.015 360.246 433.434 359.831 436.635C359.815 436.711 359.812 436.8 359.804 436.915C359.631 440.071 361.352 442.754 364.776 444.682C366.818 445.831 368.525 446.505 370.666 447.009C370.674 447.009 370.677 447.009 370.685 447.009C370.841 447.05 371.009 447.069 371.173 447.069C371.34 447.069 371.507 447.05 371.664 447.015C371.672 447.009 371.68 447.009 371.683 447.009C373.829 446.505 375.534 445.831 377.575 444.682C381 442.754 382.72 440.071 382.548 436.913Z" fill="white"/>
<path d="M467.604 219.037C475.907 227.348 475.907 240.821 467.604 249.129C459.303 257.44 445.841 257.44 437.541 249.129C429.235 240.821 429.235 227.348 437.541 219.037C445.841 210.728 459.303 210.728 467.604 219.037Z" fill="#8E00FE"/>
<path d="M463.94 232.884C463.935 232.769 463.927 232.674 463.916 232.617C463.506 229.408 460.839 226.987 457.73 226.987C456.058 226.987 454.491 227.661 453.313 228.893C453.038 229.182 452.79 229.492 452.569 229.824C452.353 229.492 452.105 229.182 451.83 228.893C450.646 227.661 449.079 226.987 447.412 226.987C444.301 226.987 441.639 229.406 441.224 232.607C441.213 232.682 441.207 232.771 441.199 232.887C441.027 236.042 442.747 238.728 446.172 240.654C448.213 241.802 449.918 242.477 452.062 242.981C452.067 242.981 452.072 242.981 452.078 242.981C452.24 243.021 452.407 243.04 452.569 243.04C452.736 243.04 452.9 243.021 453.059 242.986C453.067 242.981 453.07 242.981 453.078 242.981C455.222 242.477 456.929 241.802 458.97 240.654C462.395 238.728 464.116 236.042 463.94 232.884Z" fill="white"/>
<path d="M551.521 369.083C563.371 380.946 563.371 400.173 551.521 412.033C539.669 423.896 520.458 423.896 508.604 412.033C496.757 400.173 496.757 380.946 508.604 369.083C520.458 357.223 539.669 357.223 551.521 369.083Z" fill="#8E00FE"/>
<path d="M546.293 388.844C546.287 388.68 546.271 388.545 546.26 388.467C545.67 383.883 541.873 380.428 537.426 380.428C535.047 380.428 532.804 381.394 531.124 383.146C530.727 383.562 530.374 384.004 530.064 384.479C529.754 384.004 529.401 383.562 529.004 383.146C527.319 381.394 525.08 380.428 522.699 380.428C518.258 380.428 514.458 383.883 513.865 388.448C513.851 388.556 513.841 388.691 513.833 388.847C513.584 393.348 516.036 397.185 520.93 399.936C523.84 401.573 526.278 402.538 529.336 403.258C529.341 403.258 529.352 403.264 529.36 403.264C529.592 403.312 529.827 403.342 530.064 403.342C530.299 403.342 530.533 403.318 530.76 403.264C530.77 403.264 530.781 403.258 530.789 403.258C533.847 402.538 536.282 401.573 539.198 399.936C544.087 397.185 546.543 393.353 546.293 388.844Z" fill="white"/>
<path d="M419.128 340.471C430.983 352.334 430.983 371.561 419.128 383.421C407.279 395.284 388.068 395.284 376.216 383.421C364.367 371.561 364.367 352.334 376.216 340.471C388.068 328.611 407.279 328.611 419.128 340.471Z" fill="#8E00FE"/>
<path d="M413.904 360.233C413.893 360.068 413.883 359.933 413.872 359.855C413.279 355.271 409.482 351.816 405.038 351.816C402.656 351.816 400.418 352.782 398.733 354.537C398.336 354.95 397.983 355.392 397.673 355.867C397.363 355.392 397.009 354.95 396.613 354.537C394.93 352.782 392.689 351.816 390.311 351.816C385.867 351.816 382.07 355.271 381.477 359.836C381.46 359.944 381.45 360.079 381.444 360.235C381.193 364.741 383.647 368.573 388.539 371.324C391.454 372.961 393.887 373.926 396.947 374.646C396.956 374.646 396.964 374.652 396.969 374.652C397.201 374.7 397.436 374.73 397.673 374.73C397.907 374.73 398.142 374.706 398.369 374.655C398.379 374.652 398.39 374.646 398.398 374.646C401.459 373.926 403.894 372.961 406.807 371.324C411.696 368.573 414.152 364.741 413.904 360.233Z" fill="white"/>
<path d="M535.274 489.8C547.123 501.663 547.123 520.893 535.274 532.75C523.422 544.613 504.208 544.613 492.362 532.75C480.507 520.893 480.507 501.663 492.362 489.8C504.208 477.943 523.422 477.943 535.274 489.8Z" fill="#8E00FE"/>
<path d="M530.044 509.564C530.034 509.397 530.023 509.265 530.012 509.181C529.422 504.602 525.625 501.145 521.178 501.145C518.799 501.145 516.558 502.111 514.876 503.869C514.479 504.281 514.126 504.724 513.816 505.198C513.506 504.724 513.152 504.281 512.753 503.869C511.071 502.111 508.832 501.145 506.451 501.145C502.01 501.145 498.213 504.602 497.617 509.168C497.603 509.276 497.593 509.408 497.584 509.567C497.336 514.068 499.79 517.905 504.682 520.653C507.595 522.293 510.03 523.255 513.09 523.978C513.099 523.978 513.104 523.981 513.112 523.981C513.341 524.035 513.581 524.062 513.816 524.062C514.05 524.062 514.282 524.035 514.514 523.981C514.522 523.981 514.528 523.978 514.539 523.978C517.602 523.255 520.034 522.293 522.95 520.653C527.839 517.905 530.293 514.07 530.044 509.564Z" fill="white"/>
<path d="M462.283 405.081C474.133 416.944 474.133 436.171 462.283 448.031C450.431 459.891 431.22 459.891 419.368 448.031C407.519 436.171 407.519 416.944 419.368 405.081C431.22 393.221 450.431 393.221 462.283 405.081Z" fill="#8E00FE"/>
<path d="M457.053 424.845C457.048 424.678 457.032 424.543 457.021 424.465C456.43 419.881 452.633 416.424 448.187 416.424C445.808 416.424 443.564 417.392 441.884 419.145C441.488 419.56 441.135 420.005 440.825 420.477C440.515 420.005 440.161 419.56 439.765 419.15C438.079 417.392 435.841 416.424 433.46 416.424C429.019 416.424 425.222 419.881 424.626 424.446C424.612 424.554 424.601 424.689 424.593 424.848C424.345 429.351 426.796 433.183 431.691 435.934C434.601 437.574 437.038 438.536 440.099 439.259C440.107 439.259 440.115 439.262 440.121 439.262C440.353 439.313 440.587 439.34 440.825 439.34C441.059 439.34 441.294 439.313 441.52 439.262C441.531 439.262 441.542 439.259 441.55 439.259C444.608 438.536 447.046 437.574 449.958 435.934C454.847 433.183 457.304 429.351 457.053 424.845Z" fill="white"/>
<path d="M436.208 494.12C446.41 504.327 446.41 520.877 436.208 531.084C426.009 541.293 409.476 541.293 399.274 531.084C389.073 520.877 389.073 504.327 399.274 494.12C409.476 483.911 426.009 483.911 436.208 494.12Z" fill="#8E00FE"/>
<path d="M431.71 511.131C431.702 510.985 431.694 510.869 431.683 510.802C431.176 506.857 427.905 503.882 424.078 503.882C422.026 503.882 420.101 504.713 418.653 506.226C418.313 506.579 418.011 506.962 417.739 507.369C417.474 506.962 417.17 506.579 416.827 506.226C415.379 504.713 413.454 503.882 411.401 503.882C407.583 503.882 404.312 506.857 403.799 510.789C403.786 510.88 403.778 510.993 403.775 511.134C403.557 515.006 405.671 518.304 409.878 520.675C412.386 522.082 414.484 522.913 417.116 523.533C417.124 523.538 417.132 523.538 417.137 523.538C417.337 523.584 417.539 523.606 417.739 523.606C417.941 523.606 418.143 523.584 418.343 523.541C418.348 523.538 418.356 523.538 418.367 523.533C420.999 522.913 423.094 522.082 425.599 520.675C429.812 518.304 431.926 515.006 431.71 511.131Z" fill="white"/>
<path d="M442.26 301.351C452.459 311.56 452.459 328.11 442.26 338.317C432.058 348.526 415.522 348.526 405.326 338.317C395.124 328.11 395.124 311.56 405.326 301.351C415.522 291.141 432.058 291.141 442.26 301.351Z" fill="#8E00FE"/>
<path d="M437.759 318.359C437.754 318.218 437.743 318.102 437.735 318.032C437.223 314.09 433.952 311.115 430.13 311.115C428.078 311.115 426.153 311.946 424.705 313.459C424.365 313.812 424.057 314.195 423.79 314.602C423.524 314.195 423.221 313.812 422.879 313.459C421.428 311.946 419.503 311.115 417.453 311.115C413.629 311.115 410.358 314.09 409.851 318.016C409.835 318.111 409.83 318.224 409.822 318.361C409.606 322.239 411.717 325.537 415.93 327.905C418.438 329.315 420.53 330.146 423.168 330.766C423.17 330.766 423.178 330.769 423.186 330.769C423.383 330.812 423.586 330.839 423.79 330.839C423.993 330.839 424.195 330.812 424.389 330.769C424.4 330.769 424.408 330.766 424.416 330.766C427.048 330.146 429.146 329.315 431.651 327.905C435.861 325.537 437.972 322.239 437.759 318.359Z" fill="white"/>
<path d="M498.101 245.583C508.302 255.79 508.302 272.34 498.101 282.549C487.904 292.756 471.368 292.756 461.167 282.549C450.968 272.34 450.968 255.79 461.167 245.583C471.368 235.373 487.904 235.373 498.101 245.583Z" fill="#8E00FE"/>
<path d="M493.604 262.594C493.596 262.448 493.586 262.332 493.575 262.265C493.068 258.32 489.797 255.345 485.97 255.345C483.923 255.345 481.992 256.176 480.547 257.689C480.205 258.042 479.903 258.425 479.636 258.832C479.369 258.425 479.061 258.042 478.721 257.689C477.273 256.176 475.345 255.345 473.296 255.345C469.474 255.345 466.203 258.32 465.694 262.251C465.68 262.34 465.672 262.456 465.667 262.596C465.448 266.469 467.563 269.767 471.769 272.137C474.28 273.545 476.375 274.376 479.01 274.996C479.015 274.996 479.021 275.001 479.029 275.001C479.228 275.047 479.431 275.069 479.636 275.069C479.838 275.069 480.037 275.047 480.234 275.001C480.245 275.001 480.25 274.996 480.258 274.996C482.89 274.376 484.986 273.545 487.496 272.137C491.703 269.772 493.817 266.472 493.604 262.594Z" fill="white"/>
</g>
<defs>
<clipPath id="clip0_1615_8693">
<rect width="239.207" height="429.744" fill="white" transform="translate(350.052 196.703)"/>
</clipPath>
</defs>
</svg>
