<svg width="320" height="146" viewBox="0 0 320 146" fill="none" xmlns="http://www.w3.org/2000/svg">
<path d="M12.444 114.511C11.6307 114.511 10.9393 114.226 10.37 113.657C9.80067 113.088 9.516 112.396 9.516 111.583V32.161C9.516 31.2663 9.80067 30.5343 10.37 29.965C10.9393 29.3956 11.6307 29.111 12.444 29.111H44.042C53.8833 29.111 61.6507 31.3883 67.344 35.943C73.0373 40.4977 75.884 47.1263 75.884 55.829C75.884 61.8477 74.3793 66.8497 71.37 70.835C68.442 74.8203 64.4973 77.7077 59.536 79.497L77.348 110.607C77.592 111.095 77.714 111.542 77.714 111.949C77.714 112.681 77.4293 113.291 76.86 113.779C76.372 114.267 75.8027 114.511 75.152 114.511H64.05C62.6673 114.511 61.61 114.145 60.878 113.413C60.146 112.681 59.5767 111.949 59.17 111.217L43.432 82.303H26.474V111.583C26.474 112.396 26.1893 113.088 25.62 113.657C25.132 114.226 24.4407 114.511 23.546 114.511H12.444ZM26.474 68.517H43.676C48.6373 68.517 52.338 67.419 54.778 65.223C57.218 62.9457 58.438 59.7737 58.438 55.707C58.438 51.6403 57.218 48.4683 54.778 46.191C52.4193 43.8323 48.7187 42.653 43.676 42.653H26.474V68.517ZM116.753 115.731C107.725 115.731 100.568 113.128 95.281 107.923C89.9944 102.718 87.1477 95.3163 86.741 85.719C86.6597 84.9057 86.619 83.889 86.619 82.669C86.619 81.3677 86.6597 80.351 86.741 79.619C87.0664 73.519 88.449 68.2323 90.889 63.759C93.4104 59.2857 96.867 55.8697 101.259 53.511C105.651 51.071 110.816 49.851 116.753 49.851C123.341 49.851 128.872 51.2336 133.345 53.999C137.818 56.683 141.194 60.465 143.471 65.345C145.748 70.1437 146.887 75.715 146.887 82.059V84.621C146.887 85.4343 146.602 86.1257 146.033 86.695C145.464 87.2643 144.732 87.549 143.837 87.549H103.333C103.333 87.549 103.333 87.671 103.333 87.915C103.333 88.159 103.333 88.3623 103.333 88.525C103.414 91.3717 103.943 94.015 104.919 96.455C105.976 98.8137 107.481 100.725 109.433 102.189C111.466 103.653 113.866 104.385 116.631 104.385C118.908 104.385 120.82 104.06 122.365 103.409C123.91 102.677 125.171 101.864 126.147 100.969C127.123 100.074 127.814 99.3423 128.221 98.773C128.953 97.797 129.522 97.2277 129.929 97.065C130.417 96.821 131.108 96.699 132.003 96.699H142.495C143.308 96.699 143.959 96.943 144.447 97.431C145.016 97.919 145.26 98.529 145.179 99.261C145.098 100.562 144.406 102.148 143.105 104.019C141.885 105.89 140.096 107.72 137.737 109.509C135.378 111.298 132.41 112.803 128.831 114.023C125.334 115.162 121.308 115.731 116.753 115.731ZM103.333 77.301H130.295V76.935C130.295 73.763 129.766 70.9977 128.709 68.639C127.652 66.2803 126.106 64.4096 124.073 63.027C122.04 61.6443 119.6 60.953 116.753 60.953C113.906 60.953 111.466 61.6443 109.433 63.027C107.4 64.4096 105.854 66.2803 104.797 68.639C103.821 70.9977 103.333 73.763 103.333 76.935V77.301ZM187.165 115.731C178.137 115.731 170.98 113.128 165.693 107.923C160.406 102.718 157.56 95.3163 157.153 85.719C157.072 84.9057 157.031 83.889 157.031 82.669C157.031 81.3677 157.072 80.351 157.153 79.619C157.478 73.519 158.861 68.2323 161.301 63.759C163.822 59.2857 167.279 55.8697 171.671 53.511C176.063 51.071 181.228 49.851 187.165 49.851C193.753 49.851 199.284 51.2336 203.757 53.999C208.23 56.683 211.606 60.465 213.883 65.345C216.16 70.1437 217.299 75.715 217.299 82.059V84.621C217.299 85.4343 217.014 86.1257 216.445 86.695C215.876 87.2643 215.144 87.549 214.249 87.549H173.745C173.745 87.549 173.745 87.671 173.745 87.915C173.745 88.159 173.745 88.3623 173.745 88.525C173.826 91.3717 174.355 94.015 175.331 96.455C176.388 98.8137 177.893 100.725 179.845 102.189C181.878 103.653 184.278 104.385 187.043 104.385C189.32 104.385 191.232 104.06 192.777 103.409C194.322 102.677 195.583 101.864 196.559 100.969C197.535 100.074 198.226 99.3423 198.633 98.773C199.365 97.797 199.934 97.2277 200.341 97.065C200.829 96.821 201.52 96.699 202.415 96.699H212.907C213.72 96.699 214.371 96.943 214.859 97.431C215.428 97.919 215.672 98.529 215.591 99.261C215.51 100.562 214.818 102.148 213.517 104.019C212.297 105.89 210.508 107.72 208.149 109.509C205.79 111.298 202.822 112.803 199.243 114.023C195.746 115.162 191.72 115.731 187.165 115.731ZM173.745 77.301H200.707V76.935C200.707 73.763 200.178 70.9977 199.121 68.639C198.064 66.2803 196.518 64.4096 194.485 63.027C192.452 61.6443 190.012 60.953 187.165 60.953C184.318 60.953 181.878 61.6443 179.845 63.027C177.812 64.4096 176.266 66.2803 175.209 68.639C174.233 70.9977 173.745 73.763 173.745 76.935V77.301ZM233.299 114.511C232.486 114.511 231.795 114.226 231.225 113.657C230.656 113.088 230.371 112.396 230.371 111.583V30.819C230.371 30.0056 230.656 29.3143 231.225 28.745C231.795 28.1756 232.486 27.891 233.299 27.891H243.425C244.239 27.891 244.93 28.1756 245.499 28.745C246.069 29.3143 246.353 30.0056 246.353 30.819V111.583C246.353 112.396 246.069 113.088 245.499 113.657C244.93 114.226 244.239 114.511 243.425 114.511H233.299ZM286.57 115.731C281.69 115.731 277.502 115.162 274.004 114.023C270.588 112.884 267.782 111.461 265.586 109.753C263.39 108.045 261.764 106.337 260.706 104.629C259.649 102.921 259.08 101.498 258.998 100.359C258.917 99.4643 259.161 98.773 259.73 98.285C260.381 97.7157 261.072 97.431 261.804 97.431H271.442C271.768 97.431 272.052 97.4717 272.296 97.553C272.54 97.6343 272.866 97.8783 273.272 98.285C274.33 99.1797 275.428 100.115 276.566 101.091C277.786 102.067 279.21 102.921 280.836 103.653C282.463 104.304 284.496 104.629 286.936 104.629C290.108 104.629 292.752 104.019 294.866 102.799C297.062 101.498 298.16 99.6677 298.16 97.309C298.16 95.601 297.672 94.2183 296.696 93.161C295.802 92.1037 294.094 91.1683 291.572 90.355C289.051 89.4603 285.472 88.525 280.836 87.549C276.282 86.4917 272.5 85.1497 269.49 83.523C266.481 81.8963 264.244 79.863 262.78 77.423C261.316 74.983 260.584 72.1363 260.584 68.883C260.584 65.711 261.52 62.7017 263.39 59.855C265.342 56.927 268.189 54.5276 271.93 52.657C275.753 50.7863 280.47 49.851 286.082 49.851C290.474 49.851 294.297 50.4203 297.55 51.559C300.804 52.6163 303.488 53.9583 305.602 55.585C307.798 57.2117 309.466 58.879 310.604 60.587C311.743 62.2137 312.353 63.637 312.434 64.857C312.516 65.7517 312.272 66.4836 311.702 67.053C311.133 67.541 310.482 67.785 309.75 67.785H300.722C300.316 67.785 299.95 67.7037 299.624 67.541C299.299 67.3783 298.974 67.175 298.648 66.931C297.754 66.1177 296.778 65.2637 295.72 64.369C294.663 63.4743 293.362 62.7017 291.816 62.051C290.352 61.319 288.4 60.953 285.96 60.953C282.87 60.953 280.511 61.6443 278.884 63.027C277.258 64.3283 276.444 65.9957 276.444 68.029C276.444 69.4117 276.81 70.6317 277.542 71.689C278.356 72.665 279.942 73.6003 282.3 74.495C284.659 75.3897 288.238 76.325 293.036 77.301C298.486 78.277 302.796 79.741 305.968 81.693C309.222 83.5637 311.499 85.7597 312.8 88.281C314.183 90.721 314.874 93.4457 314.874 96.455C314.874 100.115 313.776 103.409 311.58 106.337C309.466 109.265 306.294 111.583 302.064 113.291C297.916 114.918 292.752 115.731 286.57 115.731Z" fill="url(#paint0_linear_1705_5652)"/>
<defs>
<linearGradient id="paint0_linear_1705_5652" x1="13.1343" y1="73.6101" x2="406.567" y2="73.6102" gradientUnits="userSpaceOnUse">
<stop/>
<stop offset="1" stop-color="#8E00FE"/>
</linearGradient>
</defs>
</svg>
