<svg width="346" height="146" viewBox="0 0 346 146" fill="none" xmlns="http://www.w3.org/2000/svg">
<path d="M39.162 115.731C31.598 115.731 25.254 114.633 20.13 112.437C15.0873 110.16 11.224 107.232 8.54 103.653C5.93733 99.993 4.55467 96.1703 4.392 92.185C4.392 91.453 4.636 90.843 5.124 90.355C5.612 89.867 6.222 89.623 6.954 89.623H17.812C18.8693 89.623 19.642 89.867 20.13 90.355C20.6993 90.7617 21.1873 91.2903 21.594 91.941C22.082 93.4863 23.0173 95.0317 24.4 96.577C25.7827 98.041 27.6533 99.261 30.012 100.237C32.452 101.213 35.502 101.701 39.162 101.701C45.018 101.701 49.3693 100.725 52.216 98.773C55.144 96.821 56.608 94.1777 56.608 90.843C56.608 88.4843 55.8353 86.6137 54.29 85.231C52.7447 83.767 50.3453 82.4657 47.092 81.327C43.92 80.107 39.6907 78.8463 34.404 77.545C28.304 76.081 23.18 74.3323 19.032 72.299C14.9653 70.1843 11.8747 67.541 9.76 64.369C7.72667 61.197 6.71 57.171 6.71 52.291C6.71 47.5736 7.97067 43.385 10.492 39.725C13.0947 36.065 16.7547 33.1776 21.472 31.063C26.2707 28.9483 31.964 27.891 38.552 27.891C43.8387 27.891 48.5153 28.623 52.582 30.087C56.6487 31.4697 60.024 33.3403 62.708 35.699C65.392 37.9763 67.4253 40.457 68.808 43.141C70.272 45.7436 71.0447 48.3056 71.126 50.827C71.126 51.4777 70.882 52.0877 70.394 52.657C69.9873 53.145 69.3773 53.389 68.564 53.389H57.218C56.5673 53.389 55.9167 53.2263 55.266 52.901C54.6153 52.5757 54.0867 51.9657 53.68 51.071C53.192 48.5497 51.606 46.3943 48.922 44.605C46.238 42.8157 42.7813 41.921 38.552 41.921C34.16 41.921 30.622 42.7343 27.938 44.361C25.254 45.9877 23.912 48.509 23.912 51.925C23.912 54.2023 24.5627 56.1137 25.864 57.659C27.2467 59.123 29.402 60.4243 32.33 61.563C35.3393 62.7017 39.284 63.9217 44.164 65.223C51.0773 66.7683 56.73 68.5577 61.122 70.591C65.514 72.6243 68.7267 75.227 70.76 78.399C72.7933 81.4897 73.81 85.4343 73.81 90.233C73.81 95.601 72.346 100.196 69.418 104.019C66.5713 107.76 62.5453 110.648 57.34 112.681C52.1347 114.714 46.0753 115.731 39.162 115.731ZM89.3774 114.511C88.5641 114.511 87.8727 114.226 87.3034 113.657C86.7341 113.088 86.4494 112.396 86.4494 111.583V30.819C86.4494 30.0056 86.7341 29.3143 87.3034 28.745C87.8727 28.1756 88.5641 27.891 89.3774 27.891H100.235C101.13 27.891 101.821 28.1756 102.309 28.745C102.879 29.3143 103.163 30.0056 103.163 30.819V58.635C105.359 56.0323 108.043 53.9177 111.215 52.291C114.387 50.6643 118.291 49.851 122.927 49.851C127.889 49.851 132.199 50.9896 135.859 53.267C139.601 55.463 142.488 58.5943 144.521 62.661C146.555 66.7277 147.571 71.6077 147.571 77.301V111.583C147.571 112.396 147.287 113.088 146.717 113.657C146.148 114.226 145.457 114.511 144.643 114.511H133.663C132.85 114.511 132.159 114.226 131.589 113.657C131.02 113.088 130.735 112.396 130.735 111.583V78.033C130.735 73.3157 129.556 69.615 127.197 66.931C124.92 64.247 121.585 62.905 117.193 62.905C112.964 62.905 109.548 64.247 106.945 66.931C104.424 69.615 103.163 73.3157 103.163 78.033V111.583C103.163 112.396 102.879 113.088 102.309 113.657C101.821 114.226 101.13 114.511 100.235 114.511H89.3774ZM181.476 115.731C177.247 115.731 173.424 114.918 170.008 113.291C166.592 111.583 163.867 109.346 161.834 106.581C159.882 103.734 158.906 100.562 158.906 97.065C158.906 91.3717 161.183 86.8577 165.738 83.523C170.374 80.107 176.474 77.8297 184.038 76.691L200.752 74.251V71.689C200.752 68.273 199.898 65.6297 198.19 63.759C196.482 61.8883 193.554 60.953 189.406 60.953C186.478 60.953 184.079 61.563 182.208 62.783C180.419 63.9216 179.077 65.467 178.182 67.419C177.531 68.4763 176.596 69.005 175.376 69.005H165.738C164.843 69.005 164.152 68.761 163.664 68.273C163.257 67.785 163.054 67.1343 163.054 66.321C163.135 65.0197 163.664 63.4337 164.64 61.563C165.616 59.6923 167.161 57.903 169.276 56.195C171.391 54.4057 174.115 52.901 177.45 51.681C180.785 50.461 184.811 49.851 189.528 49.851C194.652 49.851 198.963 50.5017 202.46 51.803C206.039 53.023 208.885 54.6903 211 56.805C213.115 58.9197 214.66 61.4003 215.636 64.247C216.612 67.0937 217.1 70.103 217.1 73.275V111.583C217.1 112.396 216.815 113.088 216.246 113.657C215.677 114.226 214.985 114.511 214.172 114.511H204.29C203.395 114.511 202.663 114.226 202.094 113.657C201.606 113.088 201.362 112.396 201.362 111.583V106.825C200.305 108.37 198.881 109.834 197.092 111.217C195.303 112.518 193.107 113.616 190.504 114.511C187.983 115.324 184.973 115.731 181.476 115.731ZM185.624 104.141C188.471 104.141 191.033 103.531 193.31 102.311C195.669 101.091 197.499 99.2203 198.8 96.699C200.183 94.0963 200.874 90.843 200.874 86.939V84.377L188.674 86.329C183.875 87.061 180.297 88.2403 177.938 89.867C175.579 91.4937 174.4 93.4863 174.4 95.845C174.4 97.6343 174.929 99.1797 175.986 100.481C177.125 101.701 178.548 102.636 180.256 103.287C181.964 103.856 183.753 104.141 185.624 104.141ZM235.679 114.511C234.866 114.511 234.175 114.226 233.605 113.657C233.036 113.088 232.751 112.396 232.751 111.583V54.121C232.751 53.2263 233.036 52.4943 233.605 51.925C234.175 51.3556 234.866 51.071 235.679 51.071H245.561C246.375 51.071 247.066 51.3556 247.635 51.925C248.286 52.4943 248.611 53.2263 248.611 54.121V59.123C250.482 56.5203 252.881 54.5276 255.809 53.145C258.819 51.7623 262.275 51.071 266.179 51.071H271.181C272.076 51.071 272.767 51.3556 273.255 51.925C273.825 52.4943 274.109 53.1856 274.109 53.999V62.783C274.109 63.5963 273.825 64.2876 273.255 64.857C272.767 65.4263 272.076 65.711 271.181 65.711H261.665C257.761 65.711 254.711 66.809 252.515 69.005C250.401 71.201 249.343 74.2103 249.343 78.033V111.583C249.343 112.396 249.059 113.088 248.489 113.657C247.92 114.226 247.188 114.511 246.293 114.511H235.679ZM310.118 115.731C301.09 115.731 293.933 113.128 288.646 107.923C283.36 102.718 280.513 95.3163 280.106 85.719C280.025 84.9057 279.984 83.889 279.984 82.669C279.984 81.3677 280.025 80.351 280.106 79.619C280.432 73.519 281.814 68.2323 284.254 63.759C286.776 59.2857 290.232 55.8697 294.624 53.511C299.016 51.071 304.181 49.851 310.118 49.851C316.706 49.851 322.237 51.2336 326.71 53.999C331.184 56.683 334.559 60.465 336.836 65.345C339.114 70.1437 340.252 75.715 340.252 82.059V84.621C340.252 85.4343 339.968 86.1257 339.398 86.695C338.829 87.2643 338.097 87.549 337.202 87.549H296.698C296.698 87.549 296.698 87.671 296.698 87.915C296.698 88.159 296.698 88.3623 296.698 88.525C296.78 91.3717 297.308 94.015 298.284 96.455C299.342 98.8137 300.846 100.725 302.798 102.189C304.832 103.653 307.231 104.385 309.996 104.385C312.274 104.385 314.185 104.06 315.73 103.409C317.276 102.677 318.536 101.864 319.512 100.969C320.488 100.074 321.18 99.3423 321.586 98.773C322.318 97.797 322.888 97.2277 323.294 97.065C323.782 96.821 324.474 96.699 325.368 96.699H335.86C336.674 96.699 337.324 96.943 337.812 97.431C338.382 97.919 338.626 98.529 338.544 99.261C338.463 100.562 337.772 102.148 336.47 104.019C335.25 105.89 333.461 107.72 331.102 109.509C328.744 111.298 325.775 112.803 322.196 114.023C318.699 115.162 314.673 115.731 310.118 115.731ZM296.698 77.301H323.66V76.935C323.66 73.763 323.132 70.9977 322.074 68.639C321.017 66.2803 319.472 64.4096 317.438 63.027C315.405 61.6443 312.965 60.953 310.118 60.953C307.272 60.953 304.832 61.6443 302.798 63.027C300.765 64.4096 299.22 66.2803 298.162 68.639C297.186 70.9977 296.698 73.763 296.698 76.935V77.301Z" fill="url(#paint0_linear_1705_5655)"/>
<defs>
<linearGradient id="paint0_linear_1705_5655" x1="14.2015" y1="73.6101" x2="439.601" y2="73.6102" gradientUnits="userSpaceOnUse">
<stop/>
<stop offset="1" stop-color="#8E00FE"/>
</linearGradient>
</defs>
</svg>
