<svg width="519" height="698" viewBox="0 0 519 698" fill="none" xmlns="http://www.w3.org/2000/svg">
<g clip-path="url(#clip0_1718_6350)">
<path d="M784.521 220.355L96.0638 690.862H102.992L784.521 225.07V220.355Z" fill="#8E00FE"/>
<path d="M784.521 283.918L188.311 690.862H784.521V283.918Z" fill="#8E00FE"/>
<path d="M540.181 450.699V0.657645L-0.405261 370.631V690.862H188.311L540.181 450.699Z" fill="#434343"/>
<path d="M188.311 226.506V253.528L-0.405467 382.69V354.54L188.311 226.506Z" fill="#8E00FE"/>
<g clip-path="url(#clip1_1718_6350)">
<path d="M484.118 574.217C494.319 587.343 494.319 608.626 484.118 621.755C473.919 634.885 457.383 634.885 447.181 621.755C436.985 608.626 436.985 587.343 447.181 574.217C457.383 561.088 473.919 561.088 484.118 574.217Z" fill="#8E00FE"/>
<path d="M479.62 596.093C479.609 595.909 479.603 595.756 479.593 595.67C479.083 590.596 475.812 586.771 471.988 586.771C469.939 586.771 468.01 587.846 466.56 589.785C466.223 590.242 465.918 590.731 465.648 591.255C465.381 590.731 465.079 590.242 464.739 589.785C463.289 587.846 461.36 586.771 459.314 586.771C455.487 586.771 452.219 590.596 451.712 595.652C451.695 595.77 451.685 595.919 451.682 596.096C451.466 601.08 453.578 605.324 457.787 608.366C460.298 610.183 462.391 611.244 465.025 612.042C465.031 612.049 465.039 612.049 465.047 612.049C465.244 612.108 465.446 612.135 465.648 612.135C465.853 612.135 466.055 612.108 466.25 612.052C466.258 612.049 466.266 612.049 466.276 612.042C468.908 611.244 471.006 610.183 473.512 608.366C477.721 605.324 479.833 601.08 479.62 596.093Z" fill="white"/>
<path d="M494.667 448.44C502.967 459.125 502.967 476.45 494.667 487.135C486.364 497.816 472.907 497.816 464.601 487.135C456.301 476.45 456.301 459.125 464.601 448.44C472.907 437.752 486.364 437.752 494.667 448.44Z" fill="#8E00FE"/>
<path d="M491.005 466.244C490.999 466.095 490.989 465.97 490.983 465.901C490.568 461.771 487.906 458.66 484.792 458.66C483.125 458.66 481.555 459.527 480.377 461.112C480.099 461.483 479.851 461.882 479.635 462.308C479.414 461.882 479.169 461.483 478.891 461.112C477.713 459.527 476.143 458.66 474.474 458.66C471.362 458.66 468.7 461.771 468.288 465.884C468.277 465.984 468.269 466.099 468.261 466.248C468.088 470.305 469.809 473.759 473.234 476.235C475.275 477.713 476.985 478.58 479.126 479.232C479.131 479.232 479.137 479.232 479.142 479.235C479.304 479.28 479.468 479.304 479.635 479.304C479.797 479.304 479.962 479.28 480.121 479.235C480.129 479.232 480.137 479.232 480.142 479.232C482.286 478.58 483.991 477.713 486.032 476.235C489.457 473.759 491.177 470.305 491.005 466.244Z" fill="white"/>
<path d="M386.207 544.057C394.513 554.745 394.513 572.071 386.207 582.752C377.907 593.437 364.445 593.437 356.144 582.752C347.841 572.071 347.841 554.745 356.144 544.057C364.445 533.372 377.907 533.372 386.207 544.057Z" fill="#8E00FE"/>
<path d="M382.548 561.865C382.54 561.715 382.534 561.594 382.526 561.521C382.108 557.391 379.446 554.28 376.334 554.28C374.665 554.28 373.096 555.147 371.917 556.732C371.642 557.103 371.394 557.502 371.173 557.929C370.957 557.502 370.709 557.103 370.431 556.732C369.253 555.147 367.684 554.28 366.017 554.28C362.905 554.28 360.246 557.391 359.831 561.507C359.815 561.604 359.812 561.719 359.804 561.868C359.631 565.925 361.352 569.376 364.776 571.856C366.818 573.333 368.525 574.2 370.666 574.848C370.674 574.848 370.677 574.848 370.685 574.848C370.841 574.9 371.009 574.925 371.173 574.925C371.34 574.925 371.507 574.9 371.664 574.855C371.672 574.848 371.68 574.848 371.683 574.848C373.829 574.2 375.534 573.333 377.575 571.856C381 569.376 382.72 565.925 382.548 561.865Z" fill="white"/>
<path d="M467.604 281.679C475.907 292.367 475.907 309.693 467.604 320.377C459.303 331.065 445.841 331.065 437.541 320.377C429.235 309.693 429.235 292.367 437.541 281.679C445.841 270.994 459.303 270.994 467.604 281.679Z" fill="#8E00FE"/>
<path d="M463.94 299.487C463.935 299.338 463.927 299.216 463.916 299.143C463.506 295.017 460.839 291.902 457.73 291.902C456.058 291.902 454.491 292.769 453.313 294.354C453.038 294.725 452.79 295.124 452.569 295.551C452.353 295.124 452.105 294.725 451.83 294.354C450.646 292.769 449.079 291.902 447.412 291.902C444.301 291.902 441.639 295.013 441.224 299.129C441.213 299.227 441.207 299.341 441.199 299.49C441.027 303.548 442.747 307.002 446.172 309.478C448.213 310.955 449.918 311.822 452.062 312.47C452.067 312.47 452.072 312.47 452.078 312.47C452.24 312.522 452.407 312.547 452.569 312.547C452.736 312.547 452.9 312.522 453.059 312.477C453.067 312.47 453.07 312.47 453.078 312.47C455.222 311.822 456.929 310.955 458.97 309.478C462.395 307.002 464.116 303.548 463.94 299.487Z" fill="white"/>
<path d="M551.521 474.637C563.371 489.892 563.371 514.618 551.521 529.87C539.669 545.125 520.458 545.125 508.604 529.87C496.757 514.618 496.757 489.892 508.604 474.637C520.458 459.385 539.669 459.385 551.521 474.637Z" fill="#8E00FE"/>
<path d="M546.293 500.049C546.287 499.838 546.271 499.664 546.26 499.564C545.67 493.668 541.873 489.226 537.426 489.226C535.047 489.226 532.804 490.468 531.124 492.722C530.727 493.256 530.374 493.825 530.064 494.435C529.754 493.825 529.401 493.256 529.004 492.722C527.319 490.468 525.08 489.226 522.699 489.226C518.258 489.226 514.458 493.668 513.865 499.54C513.851 499.678 513.841 499.852 513.833 500.053C513.584 505.841 516.036 510.776 520.93 514.313C523.84 516.418 526.278 517.659 529.336 518.585C529.341 518.585 529.352 518.592 529.36 518.592C529.592 518.655 529.827 518.693 530.064 518.693C530.299 518.693 530.533 518.662 530.76 518.592C530.77 518.592 530.781 518.585 530.789 518.585C533.847 517.659 536.282 516.418 539.198 514.313C544.087 510.776 546.543 505.848 546.293 500.049Z" fill="white"/>
<path d="M419.128 437.842C430.983 453.097 430.983 477.824 419.128 493.075C407.279 508.331 388.068 508.331 376.216 493.075C364.367 477.824 364.367 453.097 376.216 437.842C388.068 422.59 407.279 422.59 419.128 437.842Z" fill="#8E00FE"/>
<path d="M413.904 463.255C413.893 463.043 413.883 462.87 413.872 462.769C413.279 456.874 409.482 452.432 405.038 452.432C402.656 452.432 400.418 453.673 398.733 455.931C398.336 456.461 397.983 457.03 397.673 457.64C397.363 457.03 397.009 456.461 396.613 455.931C394.93 453.673 392.689 452.432 390.311 452.432C385.867 452.432 382.07 456.874 381.477 462.745C381.46 462.884 381.45 463.057 381.444 463.258C381.193 469.053 383.647 473.981 388.539 477.518C391.454 479.623 393.887 480.865 396.947 481.791C396.956 481.791 396.964 481.798 396.969 481.798C397.201 481.86 397.436 481.898 397.673 481.898C397.907 481.898 398.142 481.867 398.369 481.801C398.379 481.798 398.39 481.791 398.398 481.791C401.459 480.865 403.894 479.623 406.807 477.518C411.696 473.981 414.152 469.053 413.904 463.255Z" fill="white"/>
<path d="M535.274 629.877C547.123 645.133 547.123 669.862 535.274 685.11C523.422 700.366 504.208 700.366 492.362 685.11C480.507 669.862 480.507 645.133 492.362 629.877C504.208 614.629 523.422 614.629 535.274 629.877Z" fill="#8E00FE"/>
<path d="M530.044 655.293C530.034 655.078 530.023 654.909 530.012 654.801C529.422 648.913 525.625 644.467 521.178 644.467C518.799 644.467 516.558 645.708 514.876 647.969C514.479 648.5 514.126 649.069 513.816 649.679C513.506 649.069 513.152 648.5 512.753 647.969C511.071 645.708 508.832 644.467 506.451 644.467C502.01 644.467 498.213 648.913 497.617 654.784C497.603 654.922 497.593 655.092 497.584 655.297C497.336 661.085 499.79 666.02 504.682 669.553C507.595 671.662 510.03 672.9 513.09 673.829C513.099 673.829 513.104 673.833 513.112 673.833C513.341 673.902 513.581 673.937 513.816 673.937C514.05 673.937 514.282 673.902 514.514 673.833C514.522 673.833 514.528 673.829 514.539 673.829C517.602 672.9 520.034 671.662 522.95 669.553C527.839 666.02 530.293 661.088 530.044 655.293Z" fill="white"/>
<path d="M462.283 520.93C474.133 536.185 474.133 560.911 462.283 576.163C450.431 591.415 431.22 591.415 419.368 576.163C407.519 560.911 407.519 536.185 419.368 520.93C431.22 505.678 450.431 505.678 462.283 520.93Z" fill="#8E00FE"/>
<path d="M457.053 546.346C457.048 546.131 457.032 545.957 457.021 545.857C456.43 539.961 452.633 535.516 448.187 535.516C445.808 535.516 443.564 536.761 441.884 539.015C441.488 539.549 441.135 540.121 440.825 540.728C440.515 540.121 440.161 539.549 439.765 539.022C438.079 536.761 435.841 535.516 433.46 535.516C429.019 535.516 425.222 539.961 424.626 545.833C424.612 545.971 424.601 546.145 424.593 546.349C424.345 552.141 426.796 557.069 431.691 560.606C434.601 562.714 437.038 563.952 440.099 564.882C440.107 564.882 440.115 564.885 440.121 564.885C440.353 564.951 440.587 564.986 440.825 564.986C441.059 564.986 441.294 564.951 441.52 564.885C441.531 564.885 441.542 564.882 441.55 564.882C444.608 563.952 447.046 562.714 449.958 560.606C454.847 557.069 457.304 552.141 457.053 546.346Z" fill="white"/>
<path d="M436.208 635.433C446.41 648.559 446.41 669.841 436.208 682.967C426.009 696.097 409.476 696.097 399.274 682.967C389.073 669.841 389.073 648.559 399.274 635.433C409.476 622.303 426.009 622.303 436.208 635.433Z" fill="#8E00FE"/>
<path d="M431.71 657.308C431.702 657.121 431.694 656.972 431.683 656.885C431.176 651.812 427.905 647.987 424.078 647.987C422.026 647.987 420.101 649.055 418.653 651C418.313 651.454 418.011 651.947 417.739 652.471C417.474 651.947 417.17 651.454 416.827 651C415.379 649.055 413.454 647.987 411.401 647.987C407.583 647.987 404.312 651.812 403.799 656.868C403.786 656.986 403.778 657.131 403.775 657.312C403.557 662.292 405.671 666.533 409.878 669.581C412.386 671.391 414.484 672.46 417.116 673.257C417.124 673.264 417.132 673.264 417.137 673.264C417.337 673.323 417.539 673.351 417.739 673.351C417.941 673.351 418.143 673.323 418.343 673.268C418.348 673.264 418.356 673.264 418.367 673.257C420.999 672.46 423.094 671.391 425.599 669.581C429.812 666.533 431.926 662.292 431.71 657.308Z" fill="white"/>
<path d="M442.26 387.533C452.459 400.663 452.459 421.945 442.26 435.071C432.058 448.201 415.522 448.201 405.326 435.071C395.124 421.945 395.124 400.663 405.326 387.533C415.522 374.404 432.058 374.404 442.26 387.533Z" fill="#8E00FE"/>
<path d="M437.759 409.405C437.754 409.225 437.743 409.076 437.735 408.986C437.223 403.916 433.952 400.091 430.13 400.091C428.078 400.091 426.153 401.159 424.705 403.104C424.365 403.559 424.057 404.051 423.79 404.575C423.524 404.051 423.221 403.559 422.879 403.104C421.428 401.159 419.503 400.091 417.453 400.091C413.629 400.091 410.358 403.916 409.851 408.965C409.835 409.086 409.83 409.232 409.822 409.409C409.606 414.396 411.717 418.637 415.93 421.682C418.438 423.496 420.53 424.564 423.168 425.361C423.17 425.361 423.178 425.365 423.186 425.365C423.383 425.42 423.586 425.455 423.79 425.455C423.993 425.455 424.195 425.42 424.389 425.365C424.4 425.365 424.408 425.361 424.416 425.361C427.048 424.564 429.146 423.496 431.651 421.682C435.861 418.637 437.972 414.396 437.759 409.405Z" fill="white"/>
<path d="M498.101 315.817C508.302 328.943 508.302 350.225 498.101 363.355C487.904 376.481 471.368 376.481 461.167 363.355C450.968 350.225 450.968 328.943 461.167 315.817C471.368 302.687 487.904 302.687 498.101 315.817Z" fill="#8E00FE"/>
<path d="M493.604 337.692C493.596 337.505 493.586 337.356 493.575 337.269C493.068 332.196 489.797 328.371 485.97 328.371C483.923 328.371 481.992 329.439 480.547 331.384C480.205 331.839 479.903 332.331 479.636 332.855C479.369 332.331 479.061 331.839 478.721 331.384C477.273 329.439 475.345 328.371 473.296 328.371C469.474 328.371 466.203 332.196 465.694 337.252C465.68 337.366 465.672 337.516 465.667 337.696C465.448 342.676 467.563 346.917 471.769 349.965C474.28 351.776 476.375 352.844 479.01 353.641C479.015 353.641 479.021 353.648 479.029 353.648C479.228 353.707 479.431 353.735 479.636 353.735C479.838 353.735 480.037 353.707 480.234 353.648C480.245 353.648 480.25 353.641 480.258 353.641C482.89 352.844 484.986 351.776 487.496 349.965C491.703 346.924 493.817 342.679 493.604 337.692Z" fill="white"/>
</g>
</g>
<defs>
<clipPath id="clip0_1718_6350">
<rect width="840" height="697.005" fill="white" transform="translate(840 697.005) rotate(-180)"/>
</clipPath>
<clipPath id="clip1_1718_6350">
<rect width="239.207" height="552.645" fill="white" transform="translate(350.052 252.958)"/>
</clipPath>
</defs>
</svg>
